<?xml version="1.0" encoding="UTF-8"?>
<svg xmlns="http://www.w3.org/2000/svg" viewBox="0 0 721.104 1075.018">
  <g id="a" data-name="Layer 1"/>
  <g id="b" data-name="Layer 2">
    <g id="c" data-name="Layer 1">
      <g>
        <path d="M721.104,712.024c-.392,167.471-111.164,310.613-271.286,351.757-31.635,8.129-63.804,11.822-96.48,11.161-161.421-3.263-303.187-113.631-342.911-274.339C2.511,768.578-.841,736.06,.178,703.08c3.196-103.404,51.637-205.617,139.917-273.809,3.289-2.541,6.668-4.98,10.136-7.27,2.544-1.681,3.949-3.686,4.617-6.816,.941-4.408,1.522-8.794,1.755-13.271,.733-14.116,3.339-27.928,6.877-41.583,4.669-18.018,11.17-35.362,19.122-52.18,1.069-2.26,2.441-3.83,4.835-4.927,11.246-5.156,22.974-8.792,34.969-11.658,14.946-3.571,30.079-6.045,45.336-7.85,16.37-1.937,32.779-3.289,49.254-3.862,5.755-.2,11.509-.462,17.264-.67,.953-.034,1.921,.002,2.858,.155,.215,.035,.556,.777,.45,1.033-.301,.725-.786,1.378-1.228,2.04-10.326,15.45-4.224,38.181,15.259,45.552,1.49,.564,3.058,.919,4.589,1.377,2.235,.669,2.457,.971,2.268,3.43-.374,4.868-1.789,9.425-4.366,13.57-1.772,2.85-3.687,5.614-5.591,8.38-2.999,4.355-5.793,8.829-7.976,13.653-2.051,4.53-3.656,9.196-4.338,14.164-1.238,9.02,1.018,17.121,6.239,24.473,2.327,3.277,5.096,6.162,8.097,8.821,2.395,2.121,4.852,4.172,7.262,6.276,3.141,2.742,6.065,5.691,8.562,9.044,3.087,4.146,5.464,8.643,6.786,13.664,1.522,5.781,1.218,11.423-1.474,16.816-1.141,2.285-2.502,4.46-3.741,6.698-.478,.863-.062,1.703,.848,1.658,4.313-.217,8.623-.487,12.935-.717,1.292-.069,2.003-.835,2.509-1.909,2.642-5.604,3.856-11.493,3.56-17.689-.216-4.514-1.186-8.865-2.778-13.085-2.809-7.441-7.039-13.994-12.591-19.658-2.683-2.737-5.6-5.246-8.436-7.832-1.891-1.724-3.913-3.313-5.714-5.124-1.685-1.694-3.283-3.508-4.695-5.434-3.736-5.093-4.718-10.827-3.102-16.861,.905-3.377,2.174-6.697,3.658-9.866,1.486-3.174,3.414-6.144,5.202-9.172,1.382-2.341,2.868-4.619,4.271-6.948,3.978-6.602,6.029-13.709,5.697-21.47-.199-4.655-.387-3.994,3.758-5.068,6.032-1.563,11.336-4.381,15.602-8.94,5.802-6.201,8.469-13.573,7.102-22.013-.817-5.045-2.487-9.922-4.985-14.449-.462-.838-.98-1.645-1.439-2.485-.334-.611,.097-1.25,.845-1.287,.479-.024,.96-.041,1.439-.025,3.198,.111,6.4,.154,9.592,.362,14.844,.966,29.683,2.034,44.462,3.736,22.408,2.582,44.698,5.927,66.614,11.381,6.665,1.659,13.218,3.759,19.856,5.533,2.366,.632,3.807,1.949,4.872,4.144,12.223,25.194,21.171,51.442,25.598,79.146,1.161,7.268,1.976,14.588,2.068,21.958,.035,2.775,1.141,5.333,1.376,7.995,.367,4.152,2.743,6.42,5.939,8.604,14.573,9.956,27.909,21.441,40.451,33.819,53.848,53.143,87.958,116.887,102.349,191.158,4.273,22.05,6.318,44.32,6.329,64.234Zm-352.29,164.105l.004-.249c11.833,.271,23.665,.604,35.499,.787,5.754,.089,11.518,.032,17.267-.201,7.828-.317,15.648-.852,23.469-1.316,10.065-.597,20.078-1.621,29.905-3.981,4.814-1.156,9.685-2.171,14.374-3.721,7.949-2.627,13.431-7.953,15.655-16.17,3.108-11.484,7.851-22.29,13.25-32.841,.946-1.849,1.904-3.696,2.765-5.586,6.018-13.211,7.684-26.92,4.862-41.199-1.215-6.151-3.181-12.042-5.472-17.846-4.232-10.725-9.675-20.875-14.817-31.168-5.519-11.048-12.005-21.487-19.599-31.234-2.064-2.649-4.131-5.299-6.088-8.027-5.071-7.069-5.049-4.223-.616-11.827,5.241-8.991,10.045-18.161,14.021-27.799,3.881-9.408,6.195-19.122,7.204-29.207,1.489-14.878,1.043-29.716-1.036-44.496-2.21-15.715-6.124-31.032-11.372-46.003-.789-2.251-1.777-4.468-2.953-6.542-4.038-7.116-9.87-12.039-17.865-14.27-13.848-3.864-27.652-7.892-41.531-11.642-9.265-2.503-18.699-4.45-28.269-5.146-13.235-.963-26.503-1.616-39.769-1.97-14.868-.397-29.743-.369-44.603,.733-10.532,.781-21.019,1.84-31.43,3.612-6.772,1.153-13.522,2.447-20.31,3.498-11.048,1.711-21.661,.314-31.699-4.812-2.284-1.166-4.717-1.883-7.247-2.417-5.151-1.089-10.201-.388-15.234,.575-2.544,.487-4.774,1.791-6.713,3.543-3.565,3.22-5.756,7.183-6.682,11.906-.481,2.455-.32,4.854,.698,7.047,1.949,4.2,4.038,8.319,7.392,11.687,5.822,5.848,10.128,12.746,13.462,20.266,2.403,5.419,4.309,11.017,5.766,16.755,4.296,16.907,7.687,33.974,9.085,51.4,1.287,16.039,.591,31.943-2.796,47.704-.704,3.277-1.383,6.571-1.828,9.891-.942,7.035,.459,13.676,3.817,19.907,.758,1.406,1.645,2.741,2.445,4.125,2.192,3.79,3.462,7.857,3.931,12.226,.5,4.663,.192,9.291-.547,13.863-2.58,15.961-4.25,32.014-4.981,48.155-.487,10.76,.508,21.406,3.515,31.801,.666,2.302,1.467,4.565,2.123,6.869,2.909,10.225,1.626,19.98-3.647,29.143-1.744,3.03-3.872,5.879-6.105,8.579-2.998,3.625-5.135,7.674-6.982,11.956-1.507,3.494-.924,6.549,1.382,9.384,2.243,2.757,4.882,5.054,8.112,6.619,15.358,7.441,31.404,11.726,48.628,10.588,6.541-.432,13.076-.996,19.622-1.321,12.298-.611,24.598-1.291,36.906-1.571,11.671-.266,23.353-.057,35.03-.057Zm319.141-156.541c.098-13.942-.953-28.277-2.797-42.57-2.936-22.761-8.262-44.942-16.065-66.514-15.196-42.011-38.019-79.477-67.577-112.905-9.015-10.195-18.661-19.763-28.726-28.918-2.956-2.689-5.811-5.49-8.706-8.246-2.802-2.668-5.937-3.661-9.643-1.999-.727,.326-1.492,.583-2.26,.796-3.772,1.047-5.494,3.736-5.633,7.426-.084,2.215,.063,4.497,.512,6.665,2.737,13.224,6.844,25.957,13.892,37.598,1.159,1.914,2.223,3.886,3.343,5.823,8,13.842,16.011,27.678,24.004,41.524,4.959,8.589,9.684,17.298,13.54,26.452,4.117,9.774,7.169,19.855,8.271,30.432,.745,7.15,1.295,14.326,1.742,21.502,.447,7.18,.623,14.377,.986,21.563,.21,4.158,.751,8.279,1.88,12.302,1.694,6.041,5.521,9.964,11.607,11.624,1.079,.294,2.152,.634,3.249,.837,1.957,.362,3.123,1.497,3.58,3.399,.298,1.241,.698,2.474,.828,3.734,.362,3.494,.789,6.996,.865,10.503,.294,13.5-1.466,26.804-4.297,39.967-4.516,20.996-11.13,41.351-19.18,61.242-9.246,22.847-20.15,44.917-31.611,66.717-10.646,20.251-22.117,40.018-34.934,58.988-9.063,13.413-18.979,26.121-30.372,37.662-4.942,5.006-9.662,10.232-14.447,15.39-2.618,2.822-5.033,5.83-6.742,9.29-.981,1.985-1.939,4.103-2.278,6.26-1.366,8.7,6.382,14.891,14.61,11.71,1.9-.735,3.689-1.917,5.308-3.177,1.657-1.289,3.366-2.383,5.268-3.267,15.713-7.305,30.546-16.129,44.401-26.51,58.721-43.999,96.869-102.018,116.628-172.332,7.566-26.922,10.889-54.511,10.753-82.966ZM52.92,607.677c-4.132,.034-7.671,1.654-10.621,4.627-2.521,2.54-4.24,5.589-5.587,8.869-2.258,5.499-3.642,11.241-4.735,17.063-1.746,9.301-2.284,18.713-2.613,28.146-.145,4.154-.209,8.316-.544,12.456-.98,12.12-1.69,24.254-1.309,36.409,.285,9.104,.913,18.199,1.535,27.288,.568,8.302,1.869,16.508,3.627,24.646,2.399,11.107,5.665,21.974,9.03,32.809,9.24,29.752,21.446,58.166,38.419,84.404,6.339,9.799,12.637,19.626,19.05,29.376,6.867,10.439,14.659,20.16,23,29.465,18.029,20.113,38.422,37.501,60.613,52.824,3.547,2.449,7.249,4.69,10.984,6.844,2.204,1.271,4.556,2.351,6.953,3.202,1.934,.687,4.022,1.19,6.063,1.28,8.053,.355,13.573-6.266,11.982-14.141-.482-2.387-1.366-4.618-2.708-6.617-1.512-2.251-3.06-4.511-4.861-6.528-2.872-3.217-5.869-6.337-8.988-9.316-5.434-5.191-10.985-10.258-16.513-15.35-12.961-11.938-24.957-24.781-36.125-38.404-13.918-16.977-26.535-34.84-37.108-54.114-14.159-25.812-24.745-52.961-30.838-81.81-2.843-13.46-4.964-27.032-6.568-40.695-1.66-14.138-2.936-28.309-3.479-42.53-.525-13.739-.72-27.49-1.138-41.233-.228-7.51-.475-15.025-.988-22.518-.283-4.13-1.025-8.241-1.77-12.322-.549-3.008-1.785-5.804-3.641-8.275-2.758-3.672-6.407-5.692-11.123-5.857Zm396.619,356.282v.155c3.838,0,7.684,.165,11.509-.045,3.975-.219,7.938-.747,11.893-1.243,2.443-.306,4.025-1.683,4.75-4.127,.451-1.521,1.087-3.017,1.846-4.412,2.342-4.303,2.097-8.553,.068-12.871-1.565-3.331-3.109-6.683-5.418-9.57-1.355-1.694-1.771-3.169-.474-5.151,1.4-2.14,2.375-4.56,2.725-7.118,.794-5.813,.018-11.478-1.973-16.976-.687-1.897-1.951-3.306-3.98-3.834-3.55-.923-7.065-2.102-10.674-2.649-7.149-1.084-14.369-1.057-21.5,.183-3.386,.589-6.612,.943-9.858-.46-1.241-.536-2.52-.294-3.709,.303-1.496,.751-2.097,2.599-1.321,4.078,.295,.563,.609,1.138,1.024,1.612,2.188,2.497,3.161,5.532,3.821,8.679,1.055,5.03,1.749,10.077,.475,15.198-.389,1.564-.476,3.223,.377,4.679,1.494,2.549,1.207,5.18,.744,7.915-.562,3.317-1.044,6.77-.183,10.008,1.021,3.838,.928,7.141-1.65,10.349-1.192,1.484-.573,2.97,1.212,3.919,2.597,1.38,5.369,1.99,8.317,1.856,3.993-.181,7.987-.32,11.981-.477Zm-65.461-44.165c.121-6.555,.247-13.11,.359-19.665,.022-1.278,.019-2.559-.021-3.836-.04-1.273-.758-2.092-1.941-2.439-.758-.222-1.561-.385-2.347-.4-4.157-.081-8.319-.226-12.472-.098-1.883,.058-3.78,.587-5.613,1.105-1.728,.488-2.352,2.343-1.404,3.863,.414,.665,.92,1.344,1.545,1.792,2.006,1.437,2.67,3.469,2.93,5.782,.394,3.494,.707,7.011,1.373,10.456,.562,2.908-.099,5.35-1.722,7.69-.727,1.048-1.469,2.119-1.961,3.282-.274,.648-.133,1.521-.012,2.266,.071,.437,.408,.88,.732,1.219,2.455,2.562,3.025,5.392,1.864,8.819-.817,2.414-.832,5.033-.418,7.603,.801,4.976,2.877,9.099,7.5,11.629,1.256,.687,2.34,1.686,3.592,2.382,1.664,.926,3.335,1.985,5.142,2.482,9.04,2.488,17.729,1.191,26.033-2.939,3.82-1.9,6.106-4.998,6.805-9.291,.565-3.468,1.326-6.904,2.025-10.349,.991-4.885,1.406-9.793,.946-14.781-.175-1.898-.039-3.833,.053-5.746,.285-5.908,.634-11.813,.919-17.721,.069-1.434,.086-2.885-.055-4.31-.17-1.72-1.143-3.017-2.782-3.582-1.189-.41-2.473-.711-3.723-.746-2.875-.08-5.759-.038-8.634,.082-4.088,.171-4.843,1.044-5.041,5.276-.397,8.497,.367,16.918,1.396,25.343,.677,5.547,.994,11.138,1.433,16.713,.222,2.819-.647,5.377-2.162,7.712-1.783,2.747-4.545,3.6-7.5,2.204-4.078-1.927-6.487-4.954-6.491-9.736-.006-7.355-.223-14.709-.35-22.063Zm-116.978,44.146l.002,.095c2.078,0,4.16-.09,6.232,.018,4.489,.234,8.948-.094,13.396-.595,1.576-.177,3.136-.582,4.671-1.002,1.468-.402,2.45-1.399,3.03-2.834,.956-2.368,2.057-4.68,2.929-7.077,.483-1.328,.765-2.768,.886-4.179,.165-1.926-.121-3.851-1.005-5.601-1.653-3.272-3.343-6.527-5.086-9.751-.679-1.257-2.06-2.363-2.18-3.628-.117-1.237,1.006-2.572,1.509-3.893,.679-1.782,1.497-3.548,1.885-5.398,1.252-5.97,.165-11.749-1.783-17.417-.665-1.934-1.891-3.336-3.908-3.884-3.386-.92-6.739-2.099-10.189-2.614-7.789-1.161-15.624-1.117-23.389,.336-2.58,.483-5.051,.687-7.511-.395-.435-.191-.913-.3-1.382-.393-1.671-.335-3.198-.088-4.342,1.296-.948,1.147-.792,2.631,.388,4.4,.177,.265,.38,.514,.583,.761,1.769,2.153,2.678,4.679,3.318,7.353,1.241,5.184,1.707,10.403,.835,15.687-.346,2.098-.412,4.115,.621,6.067,.778,1.471,.764,3.079,.607,4.686-.201,2.068-.505,4.13-.599,6.202-.086,1.901-.342,3.923,.162,5.697,1.172,4.127,.95,7.81-1.852,11.245-.803,.984-.404,2.248,.604,2.925,.659,.443,1.359,.852,2.092,1.15,2.4,.979,4.898,1.371,7.5,1.236,3.99-.206,7.984-.332,11.977-.492ZM527.364,413.714c1.982-.272,3.612-.297,5.119-.741,3.728-1.097,5.788-4.108,5.531-7.969-.083-1.257-.388-2.536-.818-3.723-.706-1.95-1.48-3.893-2.431-5.732-2.979-5.764-4.559-11.902-5.357-18.309-.811-6.508-2.072-12.937-3.694-19.299-3.367-13.209-8.5-25.797-13.433-38.455-.399-1.023-.994-2.026-1.706-2.861-1.96-2.297-4.511-2.927-7.381-2.152-2.616,.707-4.567,3.113-4.715,6.014-.081,1.575,.128,3.191,.408,4.752,.281,1.567,.779,3.1,1.242,4.629,2.178,7.191,4.382,14.373,6.566,21.562,5.063,16.666,6.298,33.556,2.969,50.714-.121,.626-.27,1.261-.275,1.893-.014,1.662,.415,3.252,1.736,4.304,1.361,1.084,2.801,2.34,4.41,2.787,3.989,1.108,8.095,1.797,11.829,2.586Zm-203.404,550.867c3.06,.179,5.772,.385,8.487,.48,1.753,.062,3.519,.055,5.266-.082,4.617-.361,9.226-.818,13.839-1.22,1.274-.111,2.567-.073,3.824-.273,1.088-.173,2.168-.511,3.198-.912,1.109-.432,1.825-1.314,1.967-2.518,.111-.944,.152-1.91,.094-2.858-.074-1.208-.677-2.178-1.872-2.529-4.602-1.353-9.187-2.828-14.094-1.443-1.214,.343-2.524,.467-3.792,.479-4.475,.042-8.953,.05-13.427-.045-2.543-.054-3.28-.885-3.342-3.617-.084-3.675-.012-7.354-.093-11.029-.062-2.779,.523-5.377,1.695-7.887,.606-1.298,1.035-2.678,1.551-4.017,.444-1.152,.312-2.265-.535-3.125-2.092-2.121-2.56-4.798-2.43-7.538,.241-5.102,.642-10.2,1.148-15.283,.138-1.388,.881-2.716,1.355-4.069,.316-.901,.734-1.776,.955-2.699,.348-1.455-.48-2.943-1.91-3.453-.739-.263-1.544-.444-2.325-.465-4.475-.124-8.951-.198-13.427-.267-.636-.01-1.281,.05-1.909,.154-2.177,.36-3.737,2.132-3.676,4.341,.026,.932,.283,1.894,.617,2.773,.92,2.423,1.314,4.924,1.441,7.496,.102,2.074,.239,4.151,.469,6.215,.378,3.392,.061,6.716-.985,9.942-.86,2.65-1.032,5.292-.635,8.037,.618,4.268,1.204,8.545,1.655,12.833,.316,3.012,.421,6.048,.546,9.076,.056,1.357-.349,2.541-1.869,2.967-2.195,.616-2.393,2.281-2.197,4.166,.334,3.207,1.79,4.92,4.975,5.551,1.559,.309,3.166,.442,4.757,.509,3.674,.154,7.351,.219,10.68,.31ZM175.053,396.828c-.048,3.526,.032,7.033,.961,10.468,.512,1.893,1.332,3.602,2.864,4.876,3.175,2.641,7.634,1.366,8.876-2.555,.336-1.061,.533-2.173,.719-3.274,1.542-9.156,3.771-18.15,6.952-26.865,2.791-7.647,5.945-15.161,8.938-22.734,.763-1.93,1.607-3.834,2.263-5.8,1.438-4.311,.939-8.515-.99-12.572-1.307-2.749-2.763-3.479-5.81-2.813-4.221,.922-7.802,2.992-10.13,6.685-1.608,2.552-2.995,5.283-4.157,8.068-2.834,6.792-4.869,13.856-6.671,20.984-2.119,8.383-3.598,16.865-3.815,25.532Zm325.193-32.5c-.397-2.527-.884-6.005-1.499-9.459-1.147-6.45-2.506-12.853-4.824-19.008-1.355-3.597-2.946-7.081-5.149-10.248-1.102-1.584-2.364-3.01-4.212-3.799-2.348-1.002-4.941-.396-6.444,1.601-1.006,1.337-1.425,2.88-1.142,4.519,.271,1.569,.673,3.119,1.097,4.656,1.489,5.393,2.78,10.823,3.455,16.389,.519,4.28,1.003,8.569,1.708,12.82,.415,2.501,1.071,4.993,1.914,7.385,.818,2.321,2.497,4.054,4.754,5.163,2.913,1.432,5.592,.913,7.787-1.506,1.949-2.149,2.464-4.769,2.556-8.513Zm-25.322,628.516c0-.785,.092-1.751-.016-2.693-.398-3.471-3.772-5.46-7.065-4.23-1.551,.579-2.867,1.52-3.658,2.937-.845,1.514-1.659,3.116-2.079,4.783-3.112,12.353,3.613,26.165,15.247,31.407,1.293,.583,2.695,.997,4.089,1.269,2.453,.478,4.74-.206,6.87-1.415,1.186-.674,1.811-1.738,1.93-3.111,.293-3.4-.8-6.33-3.238-8.645-1.609-1.527-3.417-2.865-5.239-4.141-2.869-2.009-4.718-4.715-5.768-7.991-.831-2.593-1.358-5.247-1.073-8.169ZM81.96,593.495c.043-1.819-.446-3.519-1.485-4.974-.827-1.157-1.761-2.322-2.885-3.167-5.267-3.962-11.174-6.181-17.842-5.911-4.233,.171-8.167,1.45-11.753,3.725-1.647,1.045-3.01,2.366-3.816,4.193-1.376,3.119-.345,6.66,2.625,8.315,1.076,.599,2.39,.963,3.62,1.044,1.41,.093,2.885-.098,4.268-.431,3.669-.881,6.954-.144,10.029,1.946,1.187,.807,2.418,1.573,3.702,2.21,1.893,.94,3.92,1.359,6.052,1.102,4.208-.507,7.4-3.94,7.485-8.052Zm117.135-192.05c.183,1.167,.392,3.063,.806,4.914,.202,.902,.661,1.811,1.217,2.557,2.628,3.528,7.527,2.92,9.247-1.113,.186-.436,.269-.914,.421-1.366,2.321-6.941,4.646-13.881,6.971-20.821,.405-1.207,.902-2.39,1.21-3.621,.953-3.81,.698-7.594-.567-11.289-.803-2.347-2.673-3.035-4.957-1.959-.431,.203-.841,.453-1.257,.687-4.503,2.538-7.496,6.323-9.246,11.149-2.356,6.501-3.282,13.265-3.846,20.862Zm-127.632,153.661c-2.658,.429-5.335,.767-7.965,1.326-1.217,.259-2.412,.829-3.493,1.468-2.003,1.184-2.909,3.268-2.477,5.238,.452,2.059,2.074,3.482,4.382,3.786,.627,.083,1.271,.084,1.905,.056,3.995-.175,7.943,.072,11.808,1.197,.608,.177,1.244,.298,1.874,.345,1.789,.133,3.483-.224,5.011-1.193,2.113-1.34,2.774-3.444,1.895-5.785-.901-2.401-2.676-3.904-4.966-4.852-2.535-1.05-5.189-1.48-7.975-1.585Zm166.681-170.154c-.068-1.274-.121-2.55-.214-3.822-.035-.475-.137-.949-.254-1.412-.601-2.378-3.04-3.259-4.759-1.505-1.773,1.81-3.299,3.886-4.775,5.958-2.271,3.188-3.397,6.842-3.873,10.697-.216,1.751-.208,3.498,.407,5.203,.895,2.479,2.575,3.849,4.884,3.901,2.385,.053,4.049-1.189,4.796-3.289,1.813-5.096,4.012-10.127,3.787-15.731Zm236.546,10.075c-2.492-.01-4.698,.779-6.542,2.44-4.055,3.652-3.152,9.945,1.777,12.285,3.148,1.495,6.208,1.089,9.013-.866,1.16-.808,2.196-1.838,3.142-2.898,1.841-2.064,1.963-4.714,.332-6.995-1.877-2.627-4.479-3.947-7.722-3.966ZM83.236,547.044c1.327-.363,2.884-.652,4.328-1.225,1.188-.471,1.668-2.065,1.168-3.272-.238-.574-.551-1.169-.982-1.604-2.666-2.691-5.884-4.347-9.672-4.655-1.227-.1-2.557,.095-3.728,.488-2.006,.674-3.095,2.417-3.062,4.376,.033,1.977,1.146,3.656,3.267,4.199,2.758,.707,5.595,1.107,8.681,1.693Zm384.408,486.368c-.05-.236-.103-.714-.253-1.159-1.323-3.95-4.258-6.622-7.346-9.156-.346-.284-.864-.39-1.321-.499-2.635-.628-4.803,1.407-4.337,4.069,.082,.465,.205,.934,.389,1.367,1.565,3.673,4.156,6.361,7.832,7.934,.704,.301,1.531,.411,2.306,.432,1.42,.039,2.752-1.366,2.729-2.987ZM90.242,520.607c-2.615,.008-4.603,1.967-4.568,4.5,.034,2.498,2.026,4.444,4.624,4.518,2.556,.073,4.77-1.859,4.887-4.265,.124-2.54-2.187-4.761-4.943-4.753Zm171.624-134.67c-.055-2.307-1.926-4.156-4.255-4.205-2.446-.051-4.624,1.962-4.711,4.354-.088,2.423,2,4.446,4.543,4.402,2.545-.043,4.483-2.037,4.422-4.551Zm194.788,651.676c-.064-2.411-1.964-4.263-4.295-4.188-2.442,.079-4.494,2.279-4.418,4.736,.074,2.364,1.984,4.179,4.359,4.14,2.555-.041,4.424-2.054,4.355-4.689Zm-21.114,7.895c2.219,.084,4.289-1.819,4.417-4.061,.129-2.255-1.757-4.276-4.057-4.347-2.331-.071-4.277,1.706-4.394,4.013-.116,2.28,1.746,4.308,4.033,4.394Z"/>
        <path d="M530.525,105.93c-.137,6.704-.094,13.418-.449,20.11-.653,12.296-1.507,24.582-2.343,36.868-.706,10.371-1.486,20.737-2.268,31.103-1.142,15.15-2.336,30.296-3.468,45.447-.786,10.526-1.508,21.057-2.252,31.586-.068,.957-.075,1.918-.136,2.876-.096,1.512,.396,2.72,1.399,3.918,1.839,2.198,3.478,4.566,5.15,6.899,.253,.353,.231,.905,.335,1.364-.595,.076-1.23,.326-1.779,.201-6.855-1.564-13.676-3.277-20.547-4.766-12.818-2.777-25.751-4.919-38.768-6.511-10.157-1.242-20.317-2.489-30.501-3.466-8.913-.855-17.855-1.472-26.797-1.957-23.812-1.294-47.646-1.633-71.482-.931-15.348,.452-30.687,1.282-45.975,2.766-20.536,1.994-40.978,4.652-61.129,9.245-12.81,2.92-25.38,6.528-37.299,12.166-.323,.153-.853-.033-1.239-.183-.095-.037-.102-.609,.021-.848,2.4-4.704,4.728-9.481,8.418-13.339,1.587-1.659,2.132-3.391,1.966-5.612-.598-7.974-1.057-15.958-1.638-23.933-.801-11.006-1.659-22.007-2.501-33.01-.817-10.684-1.667-21.365-2.461-32.05-.782-10.526-1.548-21.054-2.251-31.585-.565-8.457-1.072-16.919-1.511-25.384-.232-4.47-.261-8.951-.387-13.426-.058-2.072-.004-4.157-.226-6.212-.34-3.142,.684-5.685,3.054-7.664,1.592-1.329,3.256-2.596,5.001-3.715,5.25-3.366,10.487-6.763,15.853-9.938,16.105-9.529,32.286-18.929,48.4-28.442,7.021-4.145,13.97-8.414,20.899-12.711,1.048-.65,1.947-1.659,2.681-2.671,2.254-3.105,4.498-6.227,6.563-9.46,10.789-16.895,26.394-26.759,45.776-30.525,15.529-3.018,31.207-2.861,46.707,.613,10.444,2.34,19.921,6.887,28.318,13.583,5.168,4.121,9.56,8.953,13.251,14.438,2.5,3.715,5.088,7.37,7.603,11.075,1.007,1.484,2.29,2.553,3.823,3.523,22.716,14.369,46.442,27.033,69.325,41.115,5.312,3.269,10.58,6.61,15.807,10.011,1.732,1.127,3.348,2.467,4.879,3.861,1.604,1.46,2.327,3.408,2.176,5.573ZM387.557,23.797c.057-2.031-.364-3.47-1.562-5.11-.752-1.028-1.809-1.88-2.371-2.992-1.923-3.807-5.318-5.466-9.162-6.271-2.955-.619-6.006-1.015-9.022-1.068-12.264-.217-24.185,1.895-35.771,5.849-5.158,1.76-10.008,4.214-14.552,7.247-2.673,1.784-5.167,3.788-7.187,6.296-.891,1.107-1.709,2.336-2.267,3.635-.84,1.954-.177,3.75,1.478,5.089,3.074,2.488,6.312,3.36,10.245,1.956,2.988-1.066,6.171-1.661,9.313-2.201,6.622-1.137,13.328-1.531,20.033-1.811,3.992-.167,7.995-.101,11.987-.265,6.874-.284,13.731-.826,20.377-2.751,1.821-.527,3.638-1.262,5.264-2.225,2.023-1.198,3.172-3.114,3.195-5.378Zm-83.09,212.284c-5.547,.276-12.757,.366-19.909,1.058-8.9,.861-17.769,2.095-26.619,3.394-11.697,1.717-23.273,4.104-34.849,6.505-4.036,.837-4.609,2.097-3.76,6.004,.068,.312,.113,.629,.178,.942,.341,1.636,1.485,2.457,3.015,2.647,.92,.114,1.901-.038,2.825-.222,4.386-.872,8.765-1.784,13.141-2.705,10.004-2.104,19.994-4.301,30.158-5.515,8.725-1.042,17.458-2.017,26.197-2.932,13.835-1.448,27.705-2.408,41.616-2.731,2.717-.063,5.435-.127,8.149-.255,1.068-.051,2.294,.213,3.033-.923,.363-.557-.98-1.373-2.913-1.781-12.736-2.692-25.663-3.227-40.263-3.485Zm97.206-45.519c14.589-.031,29.073,1.385,43.489,3.379,17.744,2.454,35.26,6.103,52.498,11.022,1.377,.393,2.777,.71,4.178,1.004,.199,.042,.469-.251,.706-.39-.106-.12-.188-.297-.321-.351-1.033-.416-2.058-.866-3.12-1.198-6.708-2.097-13.402-4.245-20.144-6.227-13.8-4.057-27.701-7.702-41.856-10.359-9.907-1.86-19.871-3.296-29.893-4.241-7.157-.675-14.359-.87-21.542-1.25-1.112-.059-2.239-.02-3.349,.084-.882,.082-1.499,.722-1.588,1.548-.117,1.093-.181,2.26,.074,3.312,.736,3.039,2.273,4.091,5.521,4.02,5.116-.112,10.231-.235,15.347-.354Zm-82.017-87.575c7.678,0,12.949,.001,18.22,0,1.277,0,2.558,.046,3.827-.055,.392-.031,.991-.427,1.061-.75,.079-.362-.243-.921-.551-1.238-1.486-1.529-3.382-2.425-5.371-3.034-5.833-1.789-11.766-3.006-17.92-2.442-4.611,.423-9.232,.79-13.818,1.411-12.499,1.692-24.937,3.758-37.261,6.47-14.051,3.092-27.867,6.971-41.199,12.441-1.472,.604-2.907,1.302-4.339,1.998-.134,.065-.152,.423-.161,.648-.002,.048,.279,.17,.412,.149,.468-.075,.939-.168,1.391-.308,11.447-3.545,23.101-6.256,34.835-8.639,11.274-2.289,22.644-4.033,34.098-5.023,9.701-.838,19.443-1.197,26.774-1.627Zm-101.3,108.181c.287,4.684,.467,8.675,1.803,12.464,.573,1.624,1.36,3.229,2.342,4.639,1.161,1.667,2.968,2.324,5.026,2.136,3.023-.276,4.891-3.194,3.416-5.852-1.348-2.429-1.862-5.036-2.634-7.614-.91-3.038-1.992-6.027-3.067-9.013-.319-.886-.801-1.733-1.321-2.523-.646-.981-1.56-1.567-2.819-1.398-1.297,.173-2.002,1.051-2.194,2.197-.313,1.868-.426,3.769-.551,4.963Zm62.531-85.664c-.515,.078-1.655,.116-2.7,.449-.865,.275-1.835,.723-2.386,1.398-2.823,3.463-5.318,7.152-6.818,11.411-.314,.89-.587,1.83-.66,2.764-.155,1.977,1.058,3.728,2.923,4.458,1.594,.624,3.481,.141,4.729-1.305,.513-.594,.935-1.286,1.304-1.983,.966-1.827,2.058-3.616,2.774-5.541,1.161-3.12,2.123-6.319,3.044-9.52,.423-1.471-.229-2.19-2.21-2.129Zm130.663,90.424c-.071-1.535-.05-2.338-.156-3.124-.324-2.414-1.97-4.238-4.153-4.679-1.919-.387-4.087,.584-5.2,2.622-1.619,2.964-2.69,6.131-2.641,9.569,.033,2.319,.718,4.404,2.553,5.955,1.057,.893,2.276,1.126,3.57,.568,2.322-1.001,3.983-2.717,4.72-5.105,.653-2.114,.984-4.328,1.306-5.806Zm-174.421-9.196c-.713,.535-1.488,.88-1.88,1.476-.408,.621-.635,1.49-.614,2.241,.12,4.187,1.041,8.204,3.121,11.867,.527,.928,1.375,1.767,2.262,2.377,1.808,1.243,4.199,.749,5.542-.968,.973-1.244,1.131-2.687,.547-4.059-1.118-2.627-2.328-5.224-3.664-7.746-.735-1.389-1.697-2.7-2.765-3.853-.585-.632-1.604-.862-2.55-1.334Zm61.803-76.578c-.07-.489-.107-1.287-.309-2.042-.482-1.799-2.643-2.587-4.216-1.566-.395,.257-.784,.556-1.094,.907-2.233,2.532-3.963,5.377-4.821,8.65-.312,1.19-.327,2.529-.164,3.758,.26,1.972,2.1,3.295,4.108,3.191,1.756-.091,2.973-1.013,3.72-2.555,1.537-3.174,2.448-6.524,2.776-10.342Zm110.361-97.87c.795-.285,2.067-.546,3.125-1.17,1.144-.674,1.688-1.879,1.461-3.27-.597-3.657-4.265-6.975-7.873-7.153-2.229-.11-4.161,.999-5.029,2.886-.845,1.837-.452,4.208,1.037,5.722,1.865,1.896,4.216,2.723,7.28,2.985Zm19.319,187.924c-.097-.449-.193-1.408-.517-2.283-.819-2.21-3.066-3.007-5.023-1.79-2.281,1.419-3.662,3.487-3.987,6.166-.232,1.912,.973,3.878,2.691,4.628,1.735,.757,3.822,.209,5.125-1.4,1.134-1.4,1.716-3.015,1.711-5.322Zm-176.741-6.005c.175,1.857,1.043,4.013,2.948,5.645,1.365,1.17,3.517,1.244,4.855,.264,1.38-1.011,1.825-2.917,1.023-4.704-.939-2.09-2.383-3.732-4.538-4.627-2.19-.909-4.31,.503-4.288,3.422Zm77.767-83.016c-.027-2.313-1.983-4.111-4.338-3.988-2.193,.114-3.791,1.821-3.774,4.033,.018,2.387,1.875,4.104,4.304,3.98,2.134-.109,3.833-1.905,3.808-4.025Zm-18.052,5.768c2.13,.047,3.907-1.652,4.001-3.827,.098-2.244-1.449-4.004-3.639-4.141-2.345-.146-4.336,1.72-4.295,4.024,.038,2.11,1.819,3.897,3.932,3.944Zm-40.698,73.405c-2.22,.041-3.947,1.798-3.91,3.979,.034,2.021,1.643,3.487,3.786,3.449,2.218-.039,4.044-1.848,3.961-3.923-.077-1.942-1.828-3.541-3.837-3.505Zm183.81,11.723c-1.999-.076-3.699,1.396-3.886,3.363-.197,2.073,1.542,3.978,3.708,4.064,2.051,.081,3.683-1.347,3.839-3.359,.17-2.19-1.445-3.983-3.662-4.067Zm-17.057-2.329c-1.885-.04-3.594,1.623-3.68,3.581-.087,2.002,1.379,3.691,3.344,3.851,2.154,.175,3.95-1.546,3.915-3.75-.031-1.96-1.665-3.641-3.579-3.682Z"/>
        <path d="M373.378,715.148c7.516,0,15.032-.07,22.546,.028,4.152,.054,8.29,.383,12.365,1.366,10.385,2.506,18.105,8.46,23.313,17.739,3.573,6.366,5.508,13.267,6.448,20.448,2.356,17.994-3.224,33.765-13.82,48.023-3.595,4.837-8.491,7.663-14.605,8.177-5.097,.428-10.185,.984-15.288,1.32-13.718,.901-27.415,2.301-41.186,2.065-6.231-.107-12.46-.424-18.684-.756-3.364-.179-6.65-.933-9.818-2.08-4.781-1.731-8.177-4.981-9.915-9.763-.869-2.391-1.548-4.886-1.986-7.391-.55-3.143-.913-6.335-1.097-9.522-.82-14.208-1.277-28.429-1.11-42.665,.034-2.887,.21-5.739,.933-8.555,1.13-4.401,3.542-7.864,7.477-10.124,1.927-1.107,3.974-2.106,6.088-2.767,9.024-2.819,18.176-4.92,27.722-5.007,6.873-.063,13.743-.456,20.615-.702l.002,.166Z"/>
        <path d="M311.595,611.46c-.228-3.829-.474-7.657-.676-11.487-.093-1.754-.227-3.521-.122-5.268,.566-9.412,1.242-18.818,1.792-28.231,.19-3.25,1.494-5.821,3.973-7.865,2.188-1.803,4.642-2.754,7.518-2.508,6.688,.573,13.383,1.071,20.066,1.699,8.432,.793,16.866,1.579,25.277,2.563,8.091,.947,16.155,2.125,24.226,3.238,3.323,.458,6.635,.992,9.946,1.527,1.417,.229,2.831,.5,4.226,.839,9.076,2.202,12.91,8.149,13.715,15.323,.967,8.613,.655,17.262-1.995,25.638-2.588,8.181-7.391,14.828-14.37,19.841-1.811,1.301-3.702,2.544-5.699,3.524-13.421,6.588-27.381,11.531-42.328,13.206-10.021,1.123-20.099,1.199-30.172,1.37-6.38,.108-13.748-4.385-14.375-13.775-.437-6.538-.771-13.083-1.15-19.625l.148-.009Z"/>
        <path d="M250.566,663.043c0-2.869-.061-5.74,.015-8.607,.098-3.669,.34-7.335,.459-11.004,.084-2.578,.52-5.086,1.401-7.496,.968-2.65,2.62-4.704,5.347-5.792,2.881-1.149,5.26-.69,7.389,1.574,1.458,1.55,2.363,3.429,2.854,5.458,.449,1.854,.829,3.758,.933,5.657,.625,11.314,1.506,22.627,1.017,33.97-.179,4.141-.482,8.291-1.024,12.397-.31,2.342-.986,4.703-1.91,6.88-1.361,3.209-3.485,3.871-6.573,2.399-5.661-2.698-8.882-7.189-9.386-13.433-.243-3.013-.056-6.06-.069-9.091-.019-4.305-.042-8.61-.064-12.914h-.391Z"/>
        <path d="M272.462,799.697c-.056,9.036-2.356,17.346-6.741,25.207-2.133,3.824-5.434,5.291-9.372,5.659-2.9,.271-5.279-1.108-6.823-3.626-.576-.94-.987-2.014-1.296-3.079-1.644-5.665-3.231-11.346-4.838-17.022-.401-1.415-.416-2.826,.002-4.244,1.668-5.659,3.353-11.313,4.984-16.983,1.364-4.741,4.864-6.839,9.367-7.813,1.669-.361,3.204-.08,4.598,.773,2.887,1.768,5.258,4.158,7.427,6.713,.68,.8,1.09,1.981,1.25,3.044,.568,3.777,.974,7.578,1.442,11.369Z"/>
        <path d="M454.796,817.846c.337-2.114,.61-4.815,1.22-7.436,1.016-4.37,2.937-8.397,5.208-12.253,.979-1.663,2.178-3.145,3.824-4.198,1.482-.948,3.114-.905,4.433,.201,1.718,1.441,3.392,3.023,4.077,5.198,1.146,3.635,2.087,7.344,1.43,11.225-.424,2.506-.821,5.021-1.358,7.504-1.012,4.683-4.158,7.793-8.011,10.239-1.02,.648-2.381,.914-3.617,1.034-2.231,.218-3.997-.7-5.223-2.652-1.603-2.551-1.61-5.441-1.984-8.862Z"/>
        <path d="M453.802,633.139c-.265,.368-.619,1.078-1.17,1.564-.498,.438-1.311,.355-1.633-.227-.35-.634-.552-1.449-.522-2.173,.045-1.075,1.02-1.803,1.872-1.624,.846,.178,1.557,1.191,1.453,2.46Z"/>
        <path d="M452.903,952.736c-1.904,0-3.818,.115-5.71-.033-1.844-.144-2.999-1.186-3.151-3.005-.265-3.158-.355-6.336-.38-9.507-.014-1.781,1.012-2.993,2.754-3.424,1.384-.342,2.798-.659,4.215-.752,2.375-.155,4.763-.203,7.143-.153,6.102,.129,7.639,3.956,7.828,8.226,.107,2.426-.825,4.667-2.312,6.625-.933,1.228-2.249,1.731-3.722,1.834-2.218,.155-4.441,.249-6.661,.369l-.002-.182Z"/>
        <path d="M443.659,916.089c0-.762-.016-1.08,.002-1.397,.37-6.483-.158-6.771,6.779-6.042,2.995,.315,5.992,.648,8.966,1.111,2.241,.349,3.306,1.681,3.315,3.943,.013,3.257-1.17,5.846-4.238,7.383-3.803,1.905-7.849,2.429-12.024,2.2-1.445-.079-2.307-.947-2.466-2.421-.187-1.733-.248-3.48-.334-4.778Z"/>
        <path d="M436.357,927.588c-.185,1.216-.396,2.767-.685,4.304-.038,.204-.461,.435-.729,.469-.27,.034-.616-.1-.844-.273-.239-.181-.494-.475-.54-.754-.494-2.981-.628-5.977-.051-8.959,.068-.35,.709-.914,.921-.849,.525,.162,1.282,.567,1.365,.989,.304,1.542,.37,3.131,.563,5.073Z"/>
        <path d="M436.663,950.832c-.339,1.124-.652,2.516-1.208,3.803-.188,.435-.97,.756-1.523,.839-.34,.051-.926-.359-1.121-.715-1.244-2.271-1.117-4.592,.127-6.8,.24-.426,1.075-.764,1.597-.716,.53,.049,1.206,.518,1.467,.995,.366,.669,.408,1.515,.661,2.594Z"/>
        <path d="M471.898,952.441c-.211,.559-.457,1.458-.895,2.251-.177,.321-.795,.597-1.171,.551-.321-.039-.752-.524-.842-.885-.318-1.276-.12-2.526,.718-3.57,.249-.31,.793-.613,1.139-.552,.332,.058,.638,.557,.849,.924,.145,.253,.108,.611,.204,1.281Z"/>
        <path d="M408.23,925.416c-.098,1.752-.128,3.512-.327,5.253-.087,.757-.43,1.531-.837,2.186-.193,.311-.797,.451-1.233,.495-.238,.024-.601-.262-.749-.504-.243-.397-.503-.873-.503-1.316,.001-4.144,.031-8.289,.125-12.432,.013-.596,.371-1.202,.645-1.767,.127-.261,.504-.649,.65-.604,.418,.13,.96,.365,1.128,.715,1.217,2.53,1.222,5.245,1.102,7.975Z"/>
        <path d="M377.161,904.199c-1.102-.131-1.899-1.283-1.663-2.405,.203-.967,1.172-1.697,2.032-1.53,1.114,.217,1.951,1.401,1.698,2.404-.239,.948-1.17,1.638-2.067,1.531Z"/>
        <path d="M270.05,952.792c-1.748,0-3.502,.098-5.241-.024-2.353-.165-3.554-1.123-3.779-3.501-.298-3.151-.275-6.339-.264-9.511,.005-1.416,1.005-2.315,2.263-2.789,.882-.332,1.832-.596,2.767-.657,3.166-.206,6.347-.525,9.506-.399,4.726,.188,7.237,2.887,7.298,7.648,.02,1.545-.324,3.152-.805,4.632-.924,2.847-2.891,4.452-6.029,4.459-1.906,.004-3.811,.161-5.716,.249v-.108Z"/>
        <path d="M260.814,915.147c.007-7.549,.265-7.15,6.692-6.498,3.003,.305,6.006,.643,8.986,1.113,2.365,.373,3.177,1.512,3.267,3.936,.131,3.554-1.307,6.055-4.601,7.602-3.564,1.673-7.303,2.12-11.15,2.029-1.937-.046-2.762-.913-3.066-2.944-.07-.471-.116-.949-.123-1.425-.017-1.271-.006-2.543-.006-3.814Z"/>
        <path d="M250.072,926.815c.127-1.42,.156-2.861,.439-4.249,.091-.447,.812-.868,1.334-1.07,.191-.074,.859,.468,.939,.814,.723,3.127,1.027,6.279,.073,9.421-.081,.266-.428,.662-.612,.642-.431-.047-.982-.201-1.223-.513-.368-.476-.665-1.107-.725-1.699-.112-1.102-.032-2.223-.032-3.336l-.193-.009Z"/>
        <path d="M253.719,950.503c-.011,1.812-.396,3.324-1.481,4.61-.486,.576-1.7,.529-2.096-.097-1.525-2.413-1.399-4.824,.017-7.226,.456-.774,1.863-.859,2.525-.172,.816,.846,1.064,1.581,1.034,2.885Z"/>
        <path d="M289.182,952.364c-.292,.622-.675,1.614-1.221,2.505-.171,.28-.844,.484-1.171,.375-.353-.118-.704-.603-.823-.998-.391-1.307,.239-2.447,.842-3.527,.187-.334,.782-.672,1.131-.619,.359,.055,.696,.551,.945,.92,.16,.238,.143,.595,.296,1.344Z"/>
        <path d="M314.631,924.245c-.798-7.595-.37-15.424-.151-23.249,.03-1.093,.305-2.186,.546-3.261,.056-.251,.53-.653,.65-.602,.407,.171,1.002,.472,1.056,.8,.179,1.089,.303,2.228,.181,3.318-.892,7.97-.541,15.962-.546,23.95-.005,7.351-.115,14.701-.206,22.052-.018,1.423,.083,2.894-.825,4.148-.091,.125-.29,.316-.359,.287-.268-.115-.693-.277-.722-.472-.185-1.244-.421-2.506-.382-3.754,.211-6.708,.502-13.413,.753-20.12,.036-.957,.005-1.917,.005-3.097Z"/>
      </g>
    </g>
  </g>
</svg>